HIERARCHY
ROOT Hips
{
	OFFSET 0.000000 0.000000 0.000000
	CHANNELS 6 Xposition Yposition Zposition Xrotation Yrotation Zrotation
	JOINT LeftUpLeg_virtual
	{
		OFFSET 0.000000 0.000000 0.000000
		CHANNELS 3 Xrotation Yrotation Zrotation
		JOINT LeftUpLeg
		{
			OFFSET 10.205400 -3.823500 0.155100
			CHANNELS 3 Xrotation Yrotation Zrotation
			JOINT LeftLeg
			{
				OFFSET 0.708757 -12.982077 0.567790
				CHANNELS 3 Xrotation Yrotation Zrotation
				JOINT LeftFoot
				{
					OFFSET -0.708756 -10.717838 -2.184338
					CHANNELS 3 Xrotation Yrotation Zrotation
					JOINT LeftToeBase
					{
						OFFSET 0.108149 -7.191104 7.560241
						CHANNELS 3 Xrotation Yrotation Zrotation
						JOINT LeftToe_End
						{
							OFFSET 0.070230 0.081724 4.490308
							CHANNELS 3 Xrotation Yrotation Zrotation
							End Site
							{
								OFFSET 0 0 0
							}
						}
					}
				}
			}
		}
	}
	JOINT RightUpLeg_virtual
	{
		OFFSET 0.000000 0.000000 0.000000
		CHANNELS 3 Xrotation Yrotation Zrotation
		JOINT RightUpLeg
		{
			OFFSET -10.205400 -3.823500 0.005500
			CHANNELS 3 Xrotation Yrotation Zrotation
			JOINT RightLeg
			{
				OFFSET -0.708756 -12.982134 0.610632
				CHANNELS 3 Xrotation Yrotation Zrotation
				JOINT RightFoot
				{
					OFFSET 0.708754 -10.717769 -1.945823
					CHANNELS 3 Xrotation Yrotation Zrotation
					JOINT RightToeBase
					{
						OFFSET -0.108140 -7.191069 7.372968
						CHANNELS 3 Xrotation Yrotation Zrotation
						JOINT RightToe_End
						{
							OFFSET -0.070227 0.081735 4.479403
							CHANNELS 3 Xrotation Yrotation Zrotation
							End Site
							{
								OFFSET 0 0 0
							}
						}
					}
				}
			}
		}
	}
	JOINT Spine_virtual
	{
		OFFSET 0.000000 0.000000 0.000000
		CHANNELS 3 Xrotation Yrotation Zrotation
		JOINT Spine
		{
			OFFSET 0.000000 6.876099 0.125700
			CHANNELS 3 Xrotation Yrotation Zrotation
			JOINT Spine1
			{
				OFFSET 0.000000 5.730043 0.104720
				CHANNELS 3 Xrotation Yrotation Zrotation
				JOINT Spine1_split
				{
					OFFSET 0.000000 5.730043 0.104720
					CHANNELS 3 Xrotation Yrotation Zrotation
					JOINT Spine2
					{
						OFFSET 0.000000 5.730043 0.104720
						CHANNELS 3 Xrotation Yrotation Zrotation
						JOINT Neck_virtual
						{
							OFFSET 0.000000 0.000000 0.000000
							CHANNELS 3 Xrotation Yrotation Zrotation
							JOINT Neck
							{
								OFFSET 0.000000 10.314075 0.188496
								CHANNELS 3 Xrotation Yrotation Zrotation
								JOINT Head
								{
									OFFSET 0.000000 7.643700 -2.377400
									CHANNELS 3 Xrotation Yrotation Zrotation
									JOINT HeadTop_End
									{
										OFFSET 0.000000 43.788605 -13.619600
										CHANNELS 3 Xrotation Yrotation Zrotation
										End Site
										{
											OFFSET 0 0 0
										}
									}
								}
							}
						}
						JOINT LeftShoulder_virtual
						{
							OFFSET 0.000000 0.000000 0.000000
							CHANNELS 3 Xrotation Yrotation Zrotation
							JOINT LeftShoulder
							{
								OFFSET 2.196100 4.412489 0.087492
								CHANNELS 3 Xrotation Yrotation Zrotation
								JOINT LeftShoulder_split
								{
									OFFSET 2.196100 4.412489 0.087492
									CHANNELS 3 Xrotation Yrotation Zrotation
									JOINT LeftArm
									{
										OFFSET 8.771219 -2.981674 -0.026999
										CHANNELS 3 Xrotation Yrotation Zrotation
										JOINT LeftForeArm
										{
											OFFSET 8.512804 0.000000 -0.000000
											CHANNELS 3 Xrotation Yrotation Zrotation
											JOINT LeftHand
											{
												OFFSET 18.484802 0.000000 -0.000000
												CHANNELS 3 Xrotation Yrotation Zrotation
												End Site
												{
													OFFSET 0 0 0
												}
											}
										}
									}
								}
							}
						}
						JOINT RightShoulder_virtual
						{
							OFFSET 0.000000 0.000000 0.000000
							CHANNELS 3 Xrotation Yrotation Zrotation
							JOINT RightShoulder
							{
								OFFSET -2.196100 4.412496 0.070690
								CHANNELS 3 Xrotation Yrotation Zrotation
								JOINT RightShoulder_split
								{
									OFFSET -2.196100 4.412496 0.070690
									CHANNELS 3 Xrotation Yrotation Zrotation
									JOINT RightArm
									{
										OFFSET -8.771282 -2.981682 -0.094208
										CHANNELS 3 Xrotation Yrotation Zrotation
										JOINT RightForeArm
										{
											OFFSET -8.494598 0.000000 0.000000
											CHANNELS 3 Xrotation Yrotation Zrotation
											JOINT RightHand
											{
												OFFSET -18.483803 0.000000 0.000001
												CHANNELS 3 Xrotation Yrotation Zrotation
												End Site
												{
													OFFSET 0 0 0
												}
											}
										}
									}
								}
							}
						}
					}
				}
			}
		}
	}
}
MOTION
Frames: 8
Frame Time: 0.03333333
-5.097728 25.845987 -1.098906 0.000000 0.000000 0.000000 -7.687654 -47.293831 1.561326 -27.150813 3.440737 30.983753 53.526198 -11.488983 10.461227 -24.168624 -6.569377 -32.227554 -3.933867 0.212313 -0.759830 0.000000 0.000000 0.000000 -9.061263 -44.651078 2.128696 -18.214158 -2.359629 -49.016289 57.569786 4.956517 -6.793018 -24.874692 -18.546697 38.519340 -0.930456 0.888168 0.375079 0.000000 0.000000 0.000000 -5.991955 -44.404965 3.209768 9.443880 6.963669 -1.757783 2.195252 0.593942 -2.294494 0.571830 -1.603372 0.824826 0.000000 0.000000 0.000000 2.751003 0.405186 -2.029386 1.112090 13.283673 1.930255 11.248188 17.268567 0.679678 0.000000 0.000000 0.000000 3.048188 0.309622 -2.343725 1.874083 -2.807979 -13.280450 -1.834603 -1.911058 0.628493 -68.800714 -0.577618 -40.203918 178.459442 -76.161773 179.620342 0.000000 0.000000 0.000000 3.804923 0.512425 -2.081561 3.412680 11.325201 -12.488770 -2.606373 0.185865 0.534925 -66.101970 20.258175 88.177476 -16.579524 84.650052 14.317518 0.000000 0.000000 0.000000 
-5.552064 26.039028 -1.222725 0.000000 0.000000 0.000000 -8.347353 -48.775132 1.140994 -26.178080 2.544529 31.634072 53.511271 -10.879361 10.518843 -21.433765 -6.323649 -31.161294 -4.907996 0.312951 -1.862706 0.000000 0.000000 0.000000 -9.995519 -45.361824 1.660994 -18.432061 -3.436676 -48.869303 59.003149 4.625026 -6.526086 -27.166476 -18.096538 37.348936 0.237482 1.001365 1.090798 0.000000 0.000000 0.000000 -6.685356 -45.225879 3.034447 9.387227 6.706346 -1.767552 2.187126 0.149101 -2.429239 0.620017 -1.234317 0.998678 0.000000 0.000000 0.000000 2.732021 -0.098810 -2.144108 1.609934 13.366643 1.900929 11.639839 17.679157 -0.195938 0.000000 0.000000 0.000000 3.062869 -0.171135 -2.443104 1.961651 -1.522054 -12.902310 -1.587063 -1.904138 0.757201 -68.390882 -1.106083 -41.604916 178.794313 -75.128816 -179.865833 0.000000 0.000000 0.000000 3.779413 0.030905 -2.212326 3.315894 10.468992 -13.333187 -2.323499 0.269650 0.360649 -66.852703 19.209757 88.529094 -19.215557 85.152849 16.805172 0.000000 0.000000 0.000000 
-6.039615 26.427706 -1.284491 0.000000 0.000000 0.000000 -8.750423 -49.582010 0.920649 -26.060723 1.904168 31.997828 53.657676 -10.595064 10.366754 -17.473144 -7.097629 -30.431320 -7.319763 0.360975 -2.438251 0.000000 0.000000 0.000000 -10.698623 -46.017665 1.354456 -18.389441 -5.160994 -48.428842 59.533636 4.175641 -6.027049 -29.065286 -17.527474 35.979008 1.191205 1.201477 1.451313 0.000000 0.000000 0.000000 -7.011090 -45.839056 2.974841 9.235468 6.439899 -1.720199 2.114001 -0.318089 -2.501733 0.592220 -0.839142 0.988437 0.000000 0.000000 0.000000 2.678781 -0.590151 -2.189452 1.863618 13.418967 2.129485 11.772357 18.244308 -1.234796 0.000000 0.000000 0.000000 3.042368 -0.633615 -2.484764 2.021116 -0.818416 -12.479459 -1.187211 -1.590406 0.644507 -66.754581 -1.656813 -43.147743 179.226199 -74.172193 -179.397623 0.000000 0.000000 0.000000 3.668770 -0.431356 -2.276176 3.179843 9.525535 -13.705468 -1.992523 0.197382 0.144070 -67.577345 17.940378 89.012118 -30.554848 86.893790 28.089517 0.000000 0.000000 0.000000 
-6.573222 26.905684 -1.303377 0.000000 0.000000 0.000000 -8.797599 -49.713105 1.038533 -26.713838 2.073657 31.753075 53.670042 -10.429645 9.801840 -13.983127 -8.483215 -29.518114 -10.004686 0.298389 -2.323705 0.000000 0.000000 0.000000 -11.014740 -46.608439 1.309232 -18.033057 -7.108827 -47.834366 58.888928 3.873800 -5.570534 -29.817833 -16.832180 35.411389 0.992660 1.375700 1.443419 0.000000 0.000000 0.000000 -7.008688 -46.216209 3.091007 9.053497 6.238875 -1.655468 2.006239 -0.669571 -2.514259 0.524023 -0.538807 0.909798 0.000000 0.000000 0.000000 2.621591 -0.926517 -2.188964 1.799913 13.416872 2.527259 11.505143 18.822920 -2.252515 0.000000 0.000000 0.000000 2.986664 -0.943840 -2.477549 2.039692 -0.725097 -12.185320 -0.756219 -1.122113 0.263253 -63.770519 -2.199171 -44.644200 179.677224 -73.477331 -179.047549 0.000000 0.000000 0.000000 3.526595 -0.747738 -2.288104 3.010411 8.588533 -13.424296 -1.672406 -0.082765 -0.032627 -67.432436 16.996685 89.372581 -107.645004 88.484056 105.255783 0.000000 0.000000 0.000000 
-7.139508 27.380423 -1.273277 0.000000 0.000000 0.000000 -8.540194 -49.363669 1.453072 -28.054679 2.969160 30.826331 53.704418 -10.405858 8.974839 -12.046975 -10.043881 -28.545130 -11.211709 0.077094 -1.621620 0.000000 0.000000 0.000000 -10.716192 -47.074289 1.632132 -17.199974 -9.012955 -46.851768 57.227474 3.509014 -5.294270 -30.026300 -16.411430 35.127369 0.397463 1.440905 1.205904 0.000000 0.000000 0.000000 -6.733224 -46.360834 3.342886 8.920347 6.137884 -1.614377 1.878339 -0.801164 -2.447820 0.434794 -0.324607 0.759595 0.000000 0.000000 0.000000 2.564345 -1.019094 -2.142188 1.381478 13.331283 2.942103 10.890441 19.301877 -3.142355 0.000000 0.000000 0.000000 2.895372 -1.017400 -2.408927 2.022778 -1.164867 -12.075715 -0.526561 -0.581502 -0.085546 -59.615742 -2.480860 -45.816929 -179.703916 -73.135091 -178.586648 0.000000 0.000000 0.000000 3.394855 -0.834874 -2.223667 2.853251 7.829510 -12.502928 -1.385379 -0.364789 -0.157915 -66.046379 16.765531 89.446101 -164.335198 85.622391 162.159237 0.000000 0.000000 0.000000 
-7.728808 27.736059 -1.197418 0.000000 0.000000 0.000000 -7.997577 -48.872800 2.036223 -29.899867 4.243903 29.346625 53.918630 -10.580127 8.048928 -11.964401 -11.465051 -27.782310 -10.020680 -0.246714 -0.497903 0.000000 0.000000 0.000000 -9.891080 -47.335564 2.230001 -15.982159 -10.603212 -45.464683 55.245111 2.934169 -5.154735 -30.742350 -16.493473 34.313518 0.576173 1.420633 0.929871 0.000000 0.000000 0.000000 -6.231977 -46.368484 3.668717 8.864275 6.175050 -1.607547 1.745530 -0.672760 -2.280554 0.457334 -0.271121 0.642066 0.000000 0.000000 0.000000 2.476511 -0.838247 -2.010166 0.734782 13.169628 3.211780 10.034067 19.585330 -3.790831 0.000000 0.000000 0.000000 2.772737 -0.833596 -2.254426 1.978712 -1.855760 -12.031764 -0.464963 -0.133434 -0.238801 -55.174313 -2.283653 -46.596828 -179.123282 -73.210243 -178.170580 0.000000 0.000000 0.000000 3.313581 -0.646316 -2.070308 2.772005 7.444619 -11.098759 -1.309097 -0.617914 -0.110927 -63.475393 17.564643 89.200249 -173.683815 82.134432 171.808819 0.000000 0.000000 0.000000 
-8.329425 27.925783 -1.096819 0.000000 0.000000 0.000000 -7.256264 -48.763859 2.575047 -31.964804 5.498886 27.741063 54.248829 -10.755829 7.195883 -13.308838 -12.636402 -27.049554 -7.679707 -0.566663 0.957458 0.000000 0.000000 0.000000 -8.825838 -47.336851 2.844775 -14.679827 -11.665251 -43.769485 54.104213 2.053370 -5.090633 -32.286434 -17.055551 32.738104 1.338334 1.315376 0.767191 0.000000 0.000000 0.000000 -5.664625 -46.285320 3.959626 8.898247 6.335337 -1.650484 1.635127 -0.320100 -2.008992 0.489728 -0.500547 0.724355 0.000000 0.000000 0.000000 2.415045 -0.432253 -1.779365 0.023339 12.985145 3.289803 9.129981 19.637178 -4.164325 0.000000 0.000000 0.000000 2.638864 -0.437928 -1.994529 1.921915 -2.418984 -11.989030 -0.768618 0.063354 -0.275704 -51.311414 -1.360502 -47.029862 -178.758987 -73.421535 -177.938148 0.000000 0.000000 0.000000 3.248798 -0.252132 -1.809981 2.755405 7.468610 -9.489603 -1.434836 -0.700570 0.119862 -60.236340 19.243696 88.650630 -177.068679 79.161237 175.509784 0.000000 0.000000 0.000000 
-8.926244 27.945702 -1.032757 0.000000 0.000000 0.000000 -6.501806 -49.232690 2.839821 -33.478340 6.374734 26.145501 54.650229 -10.658742 6.578592 -15.498346 -13.294463 -25.973167 -6.146432 -0.840799 2.593114 0.000000 0.000000 0.000000 -7.867127 -47.295379 3.220009 -13.561046 -12.035438 -41.951763 54.315362 1.184548 -5.146300 -33.946846 -17.815853 31.075530 1.641027 1.160808 0.683675 0.000000 0.000000 0.000000 -5.060668 -46.258272 4.057593 8.982615 6.568053 -1.738739 1.535852 0.158727 -1.683110 0.616866 -0.919285 0.834221 0.000000 0.000000 0.000000 2.397934 0.082343 -1.467635 -0.557400 12.839715 3.182792 8.463057 19.582943 -4.316223 0.000000 0.000000 0.000000 2.502515 0.053210 -1.674411 1.864827 -2.618388 -11.751988 -1.255547 0.137584 -0.163259 -48.846542 0.300902 -47.371593 -178.661247 -73.502097 -177.920008 0.000000 0.000000 0.000000 3.186061 0.240204 -1.469767 2.814060 7.882875 -7.981482 -1.801712 -0.658716 0.477051 -57.007481 21.369323 87.872071 -178.648707 76.972885 177.363183 0.000000 0.000000 0.000000 
